  0
SECTION
  2
HEADER
  9
$ACADVER
  1
AC1009
  9
$INSUNITS
 70
     5
  0
ENDSEC
  0
SECTION
  2
TABLES
  0
TABLE
  2
LAYER
 70
     8
  0
LAYER
  2
0
 62
     7
 70
0
  6
CONTINUOUS
  0
LAYER
  2
1
 62
     1
 70
0
  6
CONTINUOUS
  0
LAYER
  2
2
 62
     2
 70
0
  6
CONTINUOUS
  0
LAYER
  2
3
 62
     3
 70
0
  6
CONTINUOUS
  0
LAYER
  2
4
 62
     4
 70
0
  6
CONTINUOUS
  0
LAYER
  2
5
 62
     5
 70
0
  6
CONTINUOUS
  0
LAYER
  2
6
 62
     6
 70
0
  6
CONTINUOUS
  0
LAYER
  2
7
 62
     7
 70
0
  6
CONTINUOUS
  0
ENDTAB
  0
TABLE
  2
STYLE
 70
     1
  0
STYLE
 70
     0
  2
STANDARD
  3
TXT
 40
0.00
 41
1.00
 42
1.00
 50
0.00
 71
     0
  0
ENDTAB
  0
ENDSEC
  0
SECTION
  2
BLOCKS
  0
BLOCK
  8
0
  2
EPAD
 70
0
 10
0.0
 20
0.0
  0
POLYLINE
  8
0
 66
1
 70
1
 40
0.5
 41
0.5
  0
VERTEX
  8
0
 10
-0.25
 20
0.0
 42
1.0
  0
VERTEX
  8
0
 10
0.25
 20
0.0
 42
1.0
  0
SEQEND
  8
0
  0
ENDBLK
  8
0
  0
BLOCK
  8
0
  2
RPAD
 70
0
 10
0.0
 20
0.0
  0
TRACE
  8
0
 10
-0.5
 20
-0.5
 11
-0.5
 21
0.5
 12
0.5
 22
-0.5
 13
0.5
 23
0.5
  0
ENDBLK
  8
0
  0
ENDSEC
0
SECTION
2
ENTITIES
0
INSERT
8
0
2
EPAD
10
9.500000
20
5.754000
41
0.228600
42
0.228600
0
INSERT
8
0
2
EPAD
10
9.500000
20
5.500000
41
0.228600
42
0.228600
0
INSERT
8
0
2
EPAD
10
9.500000
20
5.246000
41
0.228600
42
0.228600
0
INSERT
8
0
2
EPAD
10
9.500000
20
9.004000
41
0.228600
42
0.228600
0
INSERT
8
0
2
EPAD
10
9.500000
20
8.750000
41
0.228600
42
0.228600
0
INSERT
8
0
2
EPAD
10
9.500000
20
8.496000
41
0.228600
42
0.228600
0
POLYLINE
8
0
66
1
70
1
40
0
41
0
0
VERTEX
8
0
10
9.614300
20
-0.390400
0
VERTEX
8
0
10
9.614300
20
-0.593600
0
VERTEX
8
0
10
9.614047
20
-0.596197
0
VERTEX
8
0
10
9.613320
20
-0.598598
0
VERTEX
8
0
10
9.612165
20
-0.600758
0
VERTEX
8
0
10
9.610629
20
-0.602629
0
VERTEX
8
0
10
9.608757
20
-0.604165
0
VERTEX
8
0
10
9.606598
20
-0.605320
0
VERTEX
8
0
10
9.604197
20
-0.606047
0
VERTEX
8
0
10
9.601600
20
-0.606300
0
VERTEX
8
0
10
9.398400
20
-0.606300
0
VERTEX
8
0
10
9.395803
20
-0.606047
0
VERTEX
8
0
10
9.393402
20
-0.605320
0
VERTEX
8
0
10
9.391243
20
-0.604165
0
VERTEX
8
0
10
9.389371
20
-0.602629
0
VERTEX
8
0
10
9.387835
20
-0.600758
0
VERTEX
8
0
10
9.386680
20
-0.598598
0
VERTEX
8
0
10
9.385953
20
-0.596197
0
VERTEX
8
0
10
9.385700
20
-0.593600
0
VERTEX
8
0
10
9.385700
20
-0.390400
0
VERTEX
8
0
10
9.385953
20
-0.387803
0
VERTEX
8
0
10
9.386680
20
-0.385402
0
VERTEX
8
0
10
9.387835
20
-0.383242
0
VERTEX
8
0
10
9.389371
20
-0.381371
0
VERTEX
8
0
10
9.391243
20
-0.379835
0
VERTEX
8
0
10
9.393402
20
-0.378680
0
VERTEX
8
0
10
9.395803
20
-0.377953
0
VERTEX
8
0
10
9.398400
20
-0.377700
0
VERTEX
8
0
10
9.601600
20
-0.377700
0
VERTEX
8
0
10
9.604197
20
-0.377953
0
VERTEX
8
0
10
9.606598
20
-0.378680
0
VERTEX
8
0
10
9.608757
20
-0.379835
0
VERTEX
8
0
10
9.610629
20
-0.381371
0
VERTEX
8
0
10
9.612165
20
-0.383242
0
VERTEX
8
0
10
9.613320
20
-0.385402
0
VERTEX
8
0
10
9.614047
20
-0.387803
0
VERTEX
8
0
10
9.614300
20
-0.390400
0
SEQEND
8
0
0
POLYLINE
8
0
66
1
70
1
40
0
41
0
0
VERTEX
8
0
10
9.614300
20
-0.644400
0
VERTEX
8
0
10
9.614300
20
-0.847600
0
VERTEX
8
0
10
9.614047
20
-0.850197
0
VERTEX
8
0
10
9.613320
20
-0.852598
0
VERTEX
8
0
10
9.612165
20
-0.854758
0
VERTEX
8
0
10
9.610629
20
-0.856629
0
VERTEX
8
0
10
9.608757
20
-0.858165
0
VERTEX
8
0
10
9.606598
20
-0.859320
0
VERTEX
8
0
10
9.604197
20
-0.860047
0
VERTEX
8
0
10
9.601600
20
-0.860300
0
VERTEX
8
0
10
9.398400
20
-0.860300
0
VERTEX
8
0
10
9.395803
20
-0.860047
0
VERTEX
8
0
10
9.393402
20
-0.859320
0
VERTEX
8
0
10
9.391243
20
-0.858165
0
VERTEX
8
0
10
9.389371
20
-0.856629
0
VERTEX
8
0
10
9.387835
20
-0.854758
0
VERTEX
8
0
10
9.386680
20
-0.852598
0
VERTEX
8
0
10
9.385953
20
-0.850197
0
VERTEX
8
0
10
9.385700
20
-0.847600
0
VERTEX
8
0
10
9.385700
20
-0.644400
0
VERTEX
8
0
10
9.385953
20
-0.641803
0
VERTEX
8
0
10
9.386680
20
-0.639402
0
VERTEX
8
0
10
9.387835
20
-0.637242
0
VERTEX
8
0
10
9.389371
20
-0.635371
0
VERTEX
8
0
10
9.391243
20
-0.633835
0
VERTEX
8
0
10
9.393402
20
-0.632680
0
VERTEX
8
0
10
9.395803
20
-0.631953
0
VERTEX
8
0
10
9.398400
20
-0.631700
0
VERTEX
8
0
10
9.601600
20
-0.631700
0
VERTEX
8
0
10
9.604197
20
-0.631953
0
VERTEX
8
0
10
9.606598
20
-0.632680
0
VERTEX
8
0
10
9.608757
20
-0.633835
0
VERTEX
8
0
10
9.610629
20
-0.635371
0
VERTEX
8
0
10
9.612165
20
-0.637242
0
VERTEX
8
0
10
9.613320
20
-0.639402
0
VERTEX
8
0
10
9.614047
20
-0.641803
0
VERTEX
8
0
10
9.614300
20
-0.644400
0
SEQEND
8
0
0
POLYLINE
8
0
66
1
70
1
40
0
41
0
0
VERTEX
8
0
10
9.614300
20
-0.898400
0
VERTEX
8
0
10
9.614300
20
-1.101600
0
VERTEX
8
0
10
9.614047
20
-1.104197
0
VERTEX
8
0
10
9.613320
20
-1.106598
0
VERTEX
8
0
10
9.612165
20
-1.108758
0
VERTEX
8
0
10
9.610629
20
-1.110629
0
VERTEX
8
0
10
9.608757
20
-1.112165
0
VERTEX
8
0
10
9.606598
20
-1.113320
0
VERTEX
8
0
10
9.604197
20
-1.114047
0
VERTEX
8
0
10
9.601600
20
-1.114300
0
VERTEX
8
0
10
9.398400
20
-1.114300
0
VERTEX
8
0
10
9.395803
20
-1.114047
0
VERTEX
8
0
10
9.393402
20
-1.113320
0
VERTEX
8
0
10
9.391243
20
-1.112165
0
VERTEX
8
0
10
9.389371
20
-1.110629
0
VERTEX
8
0
10
9.387835
20
-1.108758
0
VERTEX
8
0
10
9.386680
20
-1.106598
0
VERTEX
8
0
10
9.385953
20
-1.104197
0
VERTEX
8
0
10
9.385700
20
-1.101600
0
VERTEX
8
0
10
9.385700
20
-0.898400
0
VERTEX
8
0
10
9.385953
20
-0.895803
0
VERTEX
8
0
10
9.386680
20
-0.893402
0
VERTEX
8
0
10
9.387835
20
-0.891242
0
VERTEX
8
0
10
9.389371
20
-0.889371
0
VERTEX
8
0
10
9.391243
20
-0.887835
0
VERTEX
8
0
10
9.393402
20
-0.886680
0
VERTEX
8
0
10
9.395803
20
-0.885953
0
VERTEX
8
0
10
9.398400
20
-0.885700
0
VERTEX
8
0
10
9.601600
20
-0.885700
0
VERTEX
8
0
10
9.604197
20
-0.885953
0
VERTEX
8
0
10
9.606598
20
-0.886680
0
VERTEX
8
0
10
9.608757
20
-0.887835
0
VERTEX
8
0
10
9.610629
20
-0.889371
0
VERTEX
8
0
10
9.612165
20
-0.891242
0
VERTEX
8
0
10
9.613320
20
-0.893402
0
VERTEX
8
0
10
9.614047
20
-0.895803
0
VERTEX
8
0
10
9.614300
20
-0.898400
0
SEQEND
8
0
0
INSERT
8
0
2
EPAD
10
11.500000
20
11.000000
41
0.228600
42
0.228600
0
INSERT
8
0
2
EPAD
10
11.754000
20
11.000000
41
0.228600
42
0.228600
0
INSERT
8
0
2
EPAD
10
11.500000
20
-5.500000
41
0.228600
42
0.228600
0
INSERT
8
0
2
EPAD
10
11.754000
20
-5.500000
41
0.228600
42
0.228600
0
POLYLINE
8
0
66
1
70
1
40
0
41
0
0
VERTEX
8
0
10
9.614300
20
2.855600
0
VERTEX
8
0
10
9.614300
20
2.652400
0
VERTEX
8
0
10
9.614047
20
2.649803
0
VERTEX
8
0
10
9.613320
20
2.647402
0
VERTEX
8
0
10
9.612165
20
2.645242
0
VERTEX
8
0
10
9.610629
20
2.643371
0
VERTEX
8
0
10
9.608757
20
2.641835
0
VERTEX
8
0
10
9.606598
20
2.640680
0
VERTEX
8
0
10
9.604197
20
2.639953
0
VERTEX
8
0
10
9.601600
20
2.639700
0
VERTEX
8
0
10
9.398400
20
2.639700
0
VERTEX
8
0
10
9.395803
20
2.639953
0
VERTEX
8
0
10
9.393402
20
2.640680
0
VERTEX
8
0
10
9.391243
20
2.641835
0
VERTEX
8
0
10
9.389371
20
2.643371
0
VERTEX
8
0
10
9.387835
20
2.645242
0
VERTEX
8
0
10
9.386680
20
2.647402
0
VERTEX
8
0
10
9.385953
20
2.649803
0
VERTEX
8
0
10
9.385700
20
2.652400
0
VERTEX
8
0
10
9.385700
20
2.855600
0
VERTEX
8
0
10
9.385953
20
2.858197
0
VERTEX
8
0
10
9.386680
20
2.860598
0
VERTEX
8
0
10
9.387835
20
2.862758
0
VERTEX
8
0
10
9.389371
20
2.864629
0
VERTEX
8
0
10
9.391243
20
2.866165
0
VERTEX
8
0
10
9.393402
20
2.867320
0
VERTEX
8
0
10
9.395803
20
2.868047
0
VERTEX
8
0
10
9.398400
20
2.868300
0
VERTEX
8
0
10
9.601600
20
2.868300
0
VERTEX
8
0
10
9.604197
20
2.868047
0
VERTEX
8
0
10
9.606598
20
2.867320
0
VERTEX
8
0
10
9.608757
20
2.866165
0
VERTEX
8
0
10
9.610629
20
2.864629
0
VERTEX
8
0
10
9.612165
20
2.862758
0
VERTEX
8
0
10
9.613320
20
2.860598
0
VERTEX
8
0
10
9.614047
20
2.858197
0
VERTEX
8
0
10
9.614300
20
2.855600
0
SEQEND
8
0
0
POLYLINE
8
0
66
1
70
1
40
0
41
0
0
VERTEX
8
0
10
9.614300
20
2.601600
0
VERTEX
8
0
10
9.614300
20
2.398400
0
VERTEX
8
0
10
9.614047
20
2.395803
0
VERTEX
8
0
10
9.613320
20
2.393402
0
VERTEX
8
0
10
9.612165
20
2.391242
0
VERTEX
8
0
10
9.610629
20
2.389371
0
VERTEX
8
0
10
9.608757
20
2.387835
0
VERTEX
8
0
10
9.606598
20
2.386680
0
VERTEX
8
0
10
9.604197
20
2.385953
0
VERTEX
8
0
10
9.601600
20
2.385700
0
VERTEX
8
0
10
9.398400
20
2.385700
0
VERTEX
8
0
10
9.395803
20
2.385953
0
VERTEX
8
0
10
9.393402
20
2.386680
0
VERTEX
8
0
10
9.391243
20
2.387835
0
VERTEX
8
0
10
9.389371
20
2.389371
0
VERTEX
8
0
10
9.387835
20
2.391242
0
VERTEX
8
0
10
9.386680
20
2.393402
0
VERTEX
8
0
10
9.385953
20
2.395803
0
VERTEX
8
0
10
9.385700
20
2.398400
0
VERTEX
8
0
10
9.385700
20
2.601600
0
VERTEX
8
0
10
9.385953
20
2.604197
0
VERTEX
8
0
10
9.386680
20
2.606598
0
VERTEX
8
0
10
9.387835
20
2.608758
0
VERTEX
8
0
10
9.389371
20
2.610629
0
VERTEX
8
0
10
9.391243
20
2.612165
0
VERTEX
8
0
10
9.393402
20
2.613320
0
VERTEX
8
0
10
9.395803
20
2.614047
0
VERTEX
8
0
10
9.398400
20
2.614300
0
VERTEX
8
0
10
9.601600
20
2.614300
0
VERTEX
8
0
10
9.604197
20
2.614047
0
VERTEX
8
0
10
9.606598
20
2.613320
0
VERTEX
8
0
10
9.608757
20
2.612165
0
VERTEX
8
0
10
9.610629
20
2.610629
0
VERTEX
8
0
10
9.612165
20
2.608758
0
VERTEX
8
0
10
9.613320
20
2.606598
0
VERTEX
8
0
10
9.614047
20
2.604197
0
VERTEX
8
0
10
9.614300
20
2.601600
0
SEQEND
8
0
0
POLYLINE
8
0
66
1
70
1
40
0
41
0
0
VERTEX
8
0
10
9.614300
20
2.347600
0
VERTEX
8
0
10
9.614300
20
2.144400
0
VERTEX
8
0
10
9.614047
20
2.141803
0
VERTEX
8
0
10
9.613320
20
2.139402
0
VERTEX
8
0
10
9.612165
20
2.137242
0
VERTEX
8
0
10
9.610629
20
2.135371
0
VERTEX
8
0
10
9.608757
20
2.133835
0
VERTEX
8
0
10
9.606598
20
2.132680
0
VERTEX
8
0
10
9.604197
20
2.131953
0
VERTEX
8
0
10
9.601600
20
2.131700
0
VERTEX
8
0
10
9.398400
20
2.131700
0
VERTEX
8
0
10
9.395803
20
2.131953
0
VERTEX
8
0
10
9.393402
20
2.132680
0
VERTEX
8
0
10
9.391243
20
2.133835
0
VERTEX
8
0
10
9.389371
20
2.135371
0
VERTEX
8
0
10
9.387835
20
2.137242
0
VERTEX
8
0
10
9.386680
20
2.139402
0
VERTEX
8
0
10
9.385953
20
2.141803
0
VERTEX
8
0
10
9.385700
20
2.144400
0
VERTEX
8
0
10
9.385700
20
2.347600
0
VERTEX
8
0
10
9.385953
20
2.350197
0
VERTEX
8
0
10
9.386680
20
2.352598
0
VERTEX
8
0
10
9.387835
20
2.354758
0
VERTEX
8
0
10
9.389371
20
2.356629
0
VERTEX
8
0
10
9.391243
20
2.358165
0
VERTEX
8
0
10
9.393402
20
2.359320
0
VERTEX
8
0
10
9.395803
20
2.360047
0
VERTEX
8
0
10
9.398400
20
2.360300
0
VERTEX
8
0
10
9.601600
20
2.360300
0
VERTEX
8
0
10
9.604197
20
2.360047
0
VERTEX
8
0
10
9.606598
20
2.359320
0
VERTEX
8
0
10
9.608757
20
2.358165
0
VERTEX
8
0
10
9.610629
20
2.356629
0
VERTEX
8
0
10
9.612165
20
2.354758
0
VERTEX
8
0
10
9.613320
20
2.352598
0
VERTEX
8
0
10
9.614047
20
2.350197
0
VERTEX
8
0
10
9.614300
20
2.347600
0
SEQEND
8
0
0
INSERT
8
0
2
EPAD
10
4.500000
20
-5.000000
41
0.228600
42
0.228600
0
INSERT
8
0
2
EPAD
10
4.500000
20
-4.746000
41
0.228600
42
0.228600
0
INSERT
8
0
2
EPAD
10
2.250000
20
-4.500000
41
0.203200
42
0.203200
0
INSERT
8
0
2
EPAD
10
3.266000
20
-4.500000
41
0.203200
42
0.203200
0
INSERT
8
0
2
EPAD
10
2.250000
20
-6.000000
41
0.203200
42
0.203200
0
INSERT
8
0
2
EPAD
10
2.504000
20
-6.000000
41
0.203200
42
0.203200
0
INSERT
8
0
2
EPAD
10
3.500000
20
2.750000
41
0.203200
42
0.203200
0
INSERT
8
0
2
EPAD
10
4.516000
20
2.750000
41
0.203200
42
0.203200
0
INSERT
8
0
2
EPAD
10
3.250000
20
1.500000
41
0.203200
42
0.203200
0
INSERT
8
0
2
EPAD
10
4.266000
20
1.500000
41
0.203200
42
0.203200
0
INSERT
8
0
2
EPAD
10
6.500000
20
5.250000
41
0.203200
42
0.203200
0
INSERT
8
0
2
EPAD
10
7.516000
20
5.250000
41
0.203200
42
0.203200
0
INSERT
8
0
2
EPAD
10
7.500000
20
-3.000000
41
0.228600
42
0.228600
0
INSERT
8
0
2
EPAD
10
7.500000
20
-1.476000
41
0.228600
42
0.228600
0
INSERT
8
0
2
EPAD
10
7.250000
20
10.500000
41
0.203200
42
0.203200
0
INSERT
8
0
2
EPAD
10
7.250000
20
9.484000
41
0.203200
42
0.203200
0
INSERT
8
0
2
EPAD
10
5.750000
20
10.250000
41
0.203200
42
0.203200
0
INSERT
8
0
2
EPAD
10
6.004000
20
10.250000
41
0.203200
42
0.203200
0
INSERT
8
0
2
EPAD
10
6.750000
20
2.000000
41
0.203200
42
0.203200
0
INSERT
8
0
2
EPAD
10
6.750000
20
0.984000
41
0.203200
42
0.203200
0
INSERT
8
0
2
EPAD
10
7.250000
20
2.250000
41
0.203200
42
0.203200
0
INSERT
8
0
2
EPAD
10
6.742000
20
2.250000
41
0.203200
42
0.203200
0
INSERT
8
0
2
EPAD
10
2.250000
20
1.996000
41
0.228600
42
0.228600
0
INSERT
8
0
2
EPAD
10
2.250000
20
2.250000
41
0.228600
42
0.228600
0
INSERT
8
0
2
EPAD
10
2.250000
20
2.504000
41
0.228600
42
0.228600
0
INSERT
8
0
2
EPAD
10
2.750000
20
0.000000
41
0.203200
42
0.203200
0
INSERT
8
0
2
EPAD
10
3.766000
20
0.000000
41
0.203200
42
0.203200
0
POLYLINE
8
0
66
1
70
1
40
0
41
0
0
VERTEX
8
0
10
4.144400
20
9.614300
0
VERTEX
8
0
10
4.347600
20
9.614300
0
VERTEX
8
0
10
4.350197
20
9.614047
0
VERTEX
8
0
10
4.352598
20
9.613320
0
VERTEX
8
0
10
4.354758
20
9.612165
0
VERTEX
8
0
10
4.356629
20
9.610629
0
VERTEX
8
0
10
4.358165
20
9.608757
0
VERTEX
8
0
10
4.359320
20
9.606598
0
VERTEX
8
0
10
4.360047
20
9.604197
0
VERTEX
8
0
10
4.360300
20
9.601600
0
VERTEX
8
0
10
4.360300
20
9.398400
0
VERTEX
8
0
10
4.360047
20
9.395803
0
VERTEX
8
0
10
4.359320
20
9.393402
0
VERTEX
8
0
10
4.358165
20
9.391243
0
VERTEX
8
0
10
4.356629
20
9.389371
0
VERTEX
8
0
10
4.354758
20
9.387835
0
VERTEX
8
0
10
4.352598
20
9.386680
0
VERTEX
8
0
10
4.350197
20
9.385953
0
VERTEX
8
0
10
4.347600
20
9.385700
0
VERTEX
8
0
10
4.144400
20
9.385700
0
VERTEX
8
0
10
4.141803
20
9.385953
0
VERTEX
8
0
10
4.139402
20
9.386680
0
VERTEX
8
0
10
4.137242
20
9.387835
0
VERTEX
8
0
10
4.135371
20
9.389371
0
VERTEX
8
0
10
4.133835
20
9.391243
0
VERTEX
8
0
10
4.132680
20
9.393402
0
VERTEX
8
0
10
4.131953
20
9.395803
0
VERTEX
8
0
10
4.131700
20
9.398400
0
VERTEX
8
0
10
4.131700
20
9.601600
0
VERTEX
8
0
10
4.131953
20
9.604197
0
VERTEX
8
0
10
4.132680
20
9.606598
0
VERTEX
8
0
10
4.133835
20
9.608757
0
VERTEX
8
0
10
4.135371
20
9.610629
0
VERTEX
8
0
10
4.137242
20
9.612165
0
VERTEX
8
0
10
4.139402
20
9.613320
0
VERTEX
8
0
10
4.141803
20
9.614047
0
VERTEX
8
0
10
4.144400
20
9.614300
0
SEQEND
8
0
0
POLYLINE
8
0
66
1
70
1
40
0
41
0
0
VERTEX
8
0
10
4.398400
20
9.614300
0
VERTEX
8
0
10
4.601600
20
9.614300
0
VERTEX
8
0
10
4.604197
20
9.614047
0
VERTEX
8
0
10
4.606598
20
9.613320
0
VERTEX
8
0
10
4.608758
20
9.612165
0
VERTEX
8
0
10
4.610629
20
9.610629
0
VERTEX
8
0
10
4.612165
20
9.608757
0
VERTEX
8
0
10
4.613320
20
9.606598
0
VERTEX
8
0
10
4.614047
20
9.604197
0
VERTEX
8
0
10
4.614300
20
9.601600
0
VERTEX
8
0
10
4.614300
20
9.398400
0
VERTEX
8
0
10
4.614047
20
9.395803
0
VERTEX
8
0
10
4.613320
20
9.393402
0
VERTEX
8
0
10
4.612165
20
9.391243
0
VERTEX
8
0
10
4.610629
20
9.389371
0
VERTEX
8
0
10
4.608758
20
9.387835
0
VERTEX
8
0
10
4.606598
20
9.386680
0
VERTEX
8
0
10
4.604197
20
9.385953
0
VERTEX
8
0
10
4.601600
20
9.385700
0
VERTEX
8
0
10
4.398400
20
9.385700
0
VERTEX
8
0
10
4.395803
20
9.385953
0
VERTEX
8
0
10
4.393402
20
9.386680
0
VERTEX
8
0
10
4.391242
20
9.387835
0
VERTEX
8
0
10
4.389371
20
9.389371
0
VERTEX
8
0
10
4.387835
20
9.391243
0
VERTEX
8
0
10
4.386680
20
9.393402
0
VERTEX
8
0
10
4.385953
20
9.395803
0
VERTEX
8
0
10
4.385700
20
9.398400
0
VERTEX
8
0
10
4.385700
20
9.601600
0
VERTEX
8
0
10
4.385953
20
9.604197
0
VERTEX
8
0
10
4.386680
20
9.606598
0
VERTEX
8
0
10
4.387835
20
9.608757
0
VERTEX
8
0
10
4.389371
20
9.610629
0
VERTEX
8
0
10
4.391242
20
9.612165
0
VERTEX
8
0
10
4.393402
20
9.613320
0
VERTEX
8
0
10
4.395803
20
9.614047
0
VERTEX
8
0
10
4.398400
20
9.614300
0
SEQEND
8
0
0
POLYLINE
8
0
66
1
70
1
40
0
41
0
0
VERTEX
8
0
10
4.652400
20
9.614300
0
VERTEX
8
0
10
4.855600
20
9.614300
0
VERTEX
8
0
10
4.858197
20
9.614047
0
VERTEX
8
0
10
4.860598
20
9.613320
0
VERTEX
8
0
10
4.862758
20
9.612165
0
VERTEX
8
0
10
4.864629
20
9.610629
0
VERTEX
8
0
10
4.866165
20
9.608757
0
VERTEX
8
0
10
4.867320
20
9.606598
0
VERTEX
8
0
10
4.868047
20
9.604197
0
VERTEX
8
0
10
4.868300
20
9.601600
0
VERTEX
8
0
10
4.868300
20
9.398400
0
VERTEX
8
0
10
4.868047
20
9.395803
0
VERTEX
8
0
10
4.867320
20
9.393402
0
VERTEX
8
0
10
4.866165
20
9.391243
0
VERTEX
8
0
10
4.864629
20
9.389371
0
VERTEX
8
0
10
4.862758
20
9.387835
0
VERTEX
8
0
10
4.860598
20
9.386680
0
VERTEX
8
0
10
4.858197
20
9.385953
0
VERTEX
8
0
10
4.855600
20
9.385700
0
VERTEX
8
0
10
4.652400
20
9.385700
0
VERTEX
8
0
10
4.649803
20
9.385953
0
VERTEX
8
0
10
4.647402
20
9.386680
0
VERTEX
8
0
10
4.645242
20
9.387835
0
VERTEX
8
0
10
4.643371
20
9.389371
0
VERTEX
8
0
10
4.641835
20
9.391243
0
VERTEX
8
0
10
4.640680
20
9.393402
0
VERTEX
8
0
10
4.639953
20
9.395803
0
VERTEX
8
0
10
4.639700
20
9.398400
0
VERTEX
8
0
10
4.639700
20
9.601600
0
VERTEX
8
0
10
4.639953
20
9.604197
0
VERTEX
8
0
10
4.640680
20
9.606598
0
VERTEX
8
0
10
4.641835
20
9.608757
0
VERTEX
8
0
10
4.643371
20
9.610629
0
VERTEX
8
0
10
4.645242
20
9.612165
0
VERTEX
8
0
10
4.647402
20
9.613320
0
VERTEX
8
0
10
4.649803
20
9.614047
0
VERTEX
8
0
10
4.652400
20
9.614300
0
SEQEND
8
0
0
INSERT
8
0
2
EPAD
10
4.250000
20
7.766000
41
0.203200
42
0.203200
0
INSERT
8
0
2
EPAD
10
4.250000
20
6.750000
41
0.203200
42
0.203200
0
INSERT
8
0
2
EPAD
10
3.750000
20
5.266000
41
0.203200
42
0.203200
0
INSERT
8
0
2
EPAD
10
3.750000
20
4.250000
41
0.203200
42
0.203200
0
INSERT
8
0
2
EPAD
10
1.500000
20
0.500000
41
0.203200
42
0.203200
0
INSERT
8
0
2
EPAD
10
1.500000
20
1.516000
41
0.203200
42
0.203200
0
INSERT
8
0
2
EPAD
10
2.250000
20
0.266000
41
0.203200
42
0.203200
0
INSERT
8
0
2
EPAD
10
2.250000
20
-0.750000
41
0.203200
42
0.203200
0
INSERT
8
0
2
EPAD
10
2.734000
20
-3.500000
41
0.203200
42
0.203200
0
INSERT
8
0
2
EPAD
10
3.750000
20
-3.500000
41
0.203200
42
0.203200
0
INSERT
8
0
2
EPAD
10
3.500000
20
9.000000
41
0.203200
42
0.203200
0
INSERT
8
0
2
EPAD
10
3.500000
20
8.492000
41
0.203200
42
0.203200
0
INSERT
8
0
2
EPAD
10
6.250000
20
9.250000
41
0.203200
42
0.203200
0
INSERT
8
0
2
EPAD
10
5.234000
20
9.250000
41
0.203200
42
0.203200
0
INSERT
8
0
2
EPAD
10
0.750000
20
2.996000
41
0.228600
42
0.228600
0
INSERT
8
0
2
EPAD
10
0.750000
20
3.250000
41
0.228600
42
0.228600
0
INSERT
8
0
2
EPAD
10
0.750000
20
3.504000
41
0.228600
42
0.228600
0
INSERT
8
0
2
EPAD
10
0.750000
20
1.750000
41
0.203200
42
0.203200
0
INSERT
8
0
2
EPAD
10
0.750000
20
0.734000
41
0.203200
42
0.203200
0
INSERT
8
0
2
EPAD
10
-1.500000
20
4.750000
41
0.228600
42
0.228600
0
INSERT
8
0
2
EPAD
10
-1.500000
20
5.004000
41
0.228600
42
0.228600
0
INSERT
8
0
2
EPAD
10
-1.500000
20
5.258000
41
0.228600
42
0.228600
0
INSERT
8
0
2
EPAD
10
0.500000
20
4.746000
41
0.228600
42
0.228600
0
INSERT
8
0
2
EPAD
10
0.500000
20
5.000000
41
0.228600
42
0.228600
0
INSERT
8
0
2
EPAD
10
0.500000
20
5.254000
41
0.228600
42
0.228600
0
INSERT
8
0
2
EPAD
10
6.250000
20
10.000000
41
0.203200
42
0.203200
0
INSERT
8
0
2
EPAD
10
5.234000
20
10.000000
41
0.203200
42
0.203200
0
INSERT
8
0
2
EPAD
10
3.000000
20
1.714295
41
0.203200
42
0.203200
0
INSERT
8
0
2
EPAD
10
3.000000
20
2.730295
41
0.203200
42
0.203200
0
INSERT
8
0
2
EPAD
10
0.000000
20
3.750000
41
0.203200
42
0.203200
0
INSERT
8
0
2
EPAD
10
-1.016000
20
3.750000
41
0.203200
42
0.203200
0
INSERT
8
0
2
EPAD
10
-1.250000
20
1.250000
41
0.228600
42
0.228600
0
INSERT
8
0
2
EPAD
10
-0.932500
20
1.250000
41
0.228600
42
0.228600
0
INSERT
8
0
2
EPAD
10
-3.000000
20
4.000000
41
0.203200
42
0.203200
0
INSERT
8
0
2
EPAD
10
-1.984000
20
4.000000
41
0.203200
42
0.203200
0
INSERT
8
0
2
EPAD
10
-2.750000
20
2.500000
41
0.228600
42
0.228600
0
INSERT
8
0
2
EPAD
10
-3.004000
20
2.500000
41
0.228600
42
0.228600
0
INSERT
8
0
2
EPAD
10
11.250000
20
4.792480
41
0.355600
42
0.355600
0
INSERT
8
0
2
EPAD
10
11.250000
20
4.396240
41
0.355600
42
0.355600
0
INSERT
8
0
2
EPAD
10
11.250000
20
4.000000
41
0.355600
42
0.355600
0
POLYLINE
8
0
66
1
40
0.020320
41
0.020320
0
VERTEX
8
0
10
-5.250000
20
-7.500000
0
VERTEX
8
0
10
13.750000
20
-7.500000
0
VERTEX
8
0
10
13.750000
20
12.250000
0
VERTEX
8
0
10
-5.250000
20
12.250000
0
VERTEX
8
0
10
-5.250000
20
-7.500000
0
SEQEND
8
0
0
POLYLINE
8
0
66
1
40
0.177800
41
0.177800
0
VERTEX
8
0
10
0.750000
20
0.734000
0
VERTEX
8
0
10
0.765296
20
0.718704
0
VERTEX
8
0
10
3.047296
20
0.718704
0
VERTEX
8
0
10
3.766000
20
0.000000
0
SEQEND
8
0
0
POLYLINE
8
0
66
1
40
0.177800
41
0.177800
0
VERTEX
8
0
10
11.250000
20
4.792480
0
VERTEX
8
0
10
11.250000
20
7.084908
0
VERTEX
8
0
10
9.584908
20
8.750000
0
VERTEX
8
0
10
9.500000
20
8.750000
0
SEQEND
8
0
0
INSERT
8
0
2
EPAD
10
9.500000
20
5.754000
41
0.203200
42
0.203200
0
CIRCLE
8
0
10
9.500000
20
5.754000
40
0.063500
0
INSERT
8
0
2
EPAD
10
9.500000
20
5.500000
41
0.203200
42
0.203200
0
CIRCLE
8
0
10
9.500000
20
5.500000
40
0.063500
0
INSERT
8
0
2
EPAD
10
9.500000
20
5.246000
41
0.203200
42
0.203200
0
CIRCLE
8
0
10
9.500000
20
5.246000
40
0.063500
0
INSERT
8
0
2
EPAD
10
9.500000
20
9.004000
41
0.203200
42
0.203200
0
CIRCLE
8
0
10
9.500000
20
9.004000
40
0.063500
0
INSERT
8
0
2
EPAD
10
9.500000
20
8.750000
41
0.203200
42
0.203200
0
CIRCLE
8
0
10
9.500000
20
8.750000
40
0.063500
0
INSERT
8
0
2
EPAD
10
9.500000
20
8.496000
41
0.203200
42
0.203200
0
CIRCLE
8
0
10
9.500000
20
8.496000
40
0.063500
0
INSERT
8
0
2
RPAD
10
9.500000
20
-0.492000
41
0.203200
42
0.203200
50
-90.000000
0
CIRCLE
8
0
10
9.500000
20
-0.492000
40
0.063500
0
INSERT
8
0
2
RPAD
10
9.500000
20
-0.746000
41
0.203200
42
0.203200
50
-90.000000
0
CIRCLE
8
0
10
9.500000
20
-0.746000
40
0.063500
0
INSERT
8
0
2
RPAD
10
9.500000
20
-1.000000
41
0.203200
42
0.203200
50
-90.000000
0
CIRCLE
8
0
10
9.500000
20
-1.000000
40
0.063500
0
INSERT
8
0
2
EPAD
10
11.500000
20
11.000000
41
0.203200
42
0.203200
0
CIRCLE
8
0
10
11.500000
20
11.000000
40
0.025400
0
INSERT
8
0
2
EPAD
10
11.754000
20
11.000000
41
0.203200
42
0.203200
0
CIRCLE
8
0
10
11.754000
20
11.000000
40
0.025400
0
INSERT
8
0
2
EPAD
10
11.500000
20
-5.500000
41
0.203200
42
0.203200
0
CIRCLE
8
0
10
11.500000
20
-5.500000
40
0.025400
0
INSERT
8
0
2
EPAD
10
11.754000
20
-5.500000
41
0.203200
42
0.203200
0
CIRCLE
8
0
10
11.754000
20
-5.500000
40
0.025400
0
INSERT
8
0
2
RPAD
10
9.500000
20
2.754000
41
0.203200
42
0.203200
50
-90.000000
0
CIRCLE
8
0
10
9.500000
20
2.754000
40
0.063500
0
INSERT
8
0
2
RPAD
10
9.500000
20
2.500000
41
0.203200
42
0.203200
50
-90.000000
0
CIRCLE
8
0
10
9.500000
20
2.500000
40
0.063500
0
INSERT
8
0
2
RPAD
10
9.500000
20
2.246000
41
0.203200
42
0.203200
50
-90.000000
0
CIRCLE
8
0
10
9.500000
20
2.246000
40
0.063500
0
INSERT
8
0
2
EPAD
10
4.500000
20
-5.000000
41
0.203200
42
0.203200
0
CIRCLE
8
0
10
4.500000
20
-5.000000
40
0.063500
0
INSERT
8
0
2
EPAD
10
4.500000
20
-4.746000
41
0.203200
42
0.203200
0
CIRCLE
8
0
10
4.500000
20
-4.746000
40
0.063500
0
INSERT
8
0
2
EPAD
10
2.250000
20
-4.500000
41
0.177800
42
0.177800
0
CIRCLE
8
0
10
2.250000
20
-4.500000
40
0.063500
0
INSERT
8
0
2
EPAD
10
3.266000
20
-4.500000
41
0.177800
42
0.177800
0
CIRCLE
8
0
10
3.266000
20
-4.500000
40
0.063500
0
INSERT
8
0
2
EPAD
10
2.250000
20
-6.000000
41
0.177800
42
0.177800
0
CIRCLE
8
0
10
2.250000
20
-6.000000
40
0.063500
0
INSERT
8
0
2
EPAD
10
2.504000
20
-6.000000
41
0.177800
42
0.177800
0
CIRCLE
8
0
10
2.504000
20
-6.000000
40
0.063500
0
INSERT
8
0
2
EPAD
10
3.500000
20
2.750000
41
0.177800
42
0.177800
0
CIRCLE
8
0
10
3.500000
20
2.750000
40
0.063500
0
INSERT
8
0
2
EPAD
10
4.516000
20
2.750000
41
0.177800
42
0.177800
0
CIRCLE
8
0
10
4.516000
20
2.750000
40
0.063500
0
INSERT
8
0
2
EPAD
10
3.250000
20
1.500000
41
0.177800
42
0.177800
0
CIRCLE
8
0
10
3.250000
20
1.500000
40
0.063500
0
INSERT
8
0
2
EPAD
10
4.266000
20
1.500000
41
0.177800
42
0.177800
0
CIRCLE
8
0
10
4.266000
20
1.500000
40
0.063500
0
INSERT
8
0
2
EPAD
10
6.500000
20
5.250000
41
0.177800
42
0.177800
0
CIRCLE
8
0
10
6.500000
20
5.250000
40
0.063500
0
INSERT
8
0
2
EPAD
10
7.516000
20
5.250000
41
0.177800
42
0.177800
0
CIRCLE
8
0
10
7.516000
20
5.250000
40
0.063500
0
INSERT
8
0
2
EPAD
10
7.500000
20
-3.000000
41
0.203200
42
0.203200
0
CIRCLE
8
0
10
7.500000
20
-3.000000
40
0.063500
0
INSERT
8
0
2
EPAD
10
7.500000
20
-1.476000
41
0.203200
42
0.203200
0
CIRCLE
8
0
10
7.500000
20
-1.476000
40
0.063500
0
INSERT
8
0
2
EPAD
10
7.250000
20
10.500000
41
0.177800
42
0.177800
0
CIRCLE
8
0
10
7.250000
20
10.500000
40
0.063500
0
INSERT
8
0
2
EPAD
10
7.250000
20
9.484000
41
0.177800
42
0.177800
0
CIRCLE
8
0
10
7.250000
20
9.484000
40
0.063500
0
INSERT
8
0
2
EPAD
10
5.750000
20
10.250000
41
0.177800
42
0.177800
0
CIRCLE
8
0
10
5.750000
20
10.250000
40
0.063500
0
INSERT
8
0
2
EPAD
10
6.004000
20
10.250000
41
0.177800
42
0.177800
0
CIRCLE
8
0
10
6.004000
20
10.250000
40
0.063500
0
INSERT
8
0
2
EPAD
10
6.750000
20
2.000000
41
0.177800
42
0.177800
0
CIRCLE
8
0
10
6.750000
20
2.000000
40
0.063500
0
INSERT
8
0
2
EPAD
10
6.750000
20
0.984000
41
0.177800
42
0.177800
0
CIRCLE
8
0
10
6.750000
20
0.984000
40
0.063500
0
INSERT
8
0
2
EPAD
10
7.250000
20
2.250000
41
0.177800
42
0.177800
0
CIRCLE
8
0
10
7.250000
20
2.250000
40
0.063500
0
INSERT
8
0
2
EPAD
10
6.742000
20
2.250000
41
0.177800
42
0.177800
0
CIRCLE
8
0
10
6.742000
20
2.250000
40
0.063500
0
INSERT
8
0
2
EPAD
10
2.250000
20
1.996000
41
0.203200
42
0.203200
0
CIRCLE
8
0
10
2.250000
20
1.996000
40
0.063500
0
INSERT
8
0
2
EPAD
10
2.250000
20
2.250000
41
0.203200
42
0.203200
0
CIRCLE
8
0
10
2.250000
20
2.250000
40
0.063500
0
INSERT
8
0
2
EPAD
10
2.250000
20
2.504000
41
0.203200
42
0.203200
0
CIRCLE
8
0
10
2.250000
20
2.504000
40
0.063500
0
INSERT
8
0
2
EPAD
10
2.750000
20
0.000000
41
0.177800
42
0.177800
0
CIRCLE
8
0
10
2.750000
20
0.000000
40
0.063500
0
INSERT
8
0
2
EPAD
10
3.766000
20
0.000000
41
0.177800
42
0.177800
0
CIRCLE
8
0
10
3.766000
20
0.000000
40
0.063500
0
INSERT
8
0
2
RPAD
10
4.246000
20
9.500000
41
0.203200
42
0.203200
50
0.000000
0
CIRCLE
8
0
10
4.246000
20
9.500000
40
0.063500
0
INSERT
8
0
2
RPAD
10
4.500000
20
9.500000
41
0.203200
42
0.203200
50
0.000000
0
CIRCLE
8
0
10
4.500000
20
9.500000
40
0.063500
0
INSERT
8
0
2
RPAD
10
4.754000
20
9.500000
41
0.203200
42
0.203200
50
0.000000
0
CIRCLE
8
0
10
4.754000
20
9.500000
40
0.063500
0
INSERT
8
0
2
EPAD
10
4.250000
20
7.766000
41
0.177800
42
0.177800
0
CIRCLE
8
0
10
4.250000
20
7.766000
40
0.063500
0
INSERT
8
0
2
EPAD
10
4.250000
20
6.750000
41
0.177800
42
0.177800
0
CIRCLE
8
0
10
4.250000
20
6.750000
40
0.063500
0
INSERT
8
0
2
EPAD
10
3.750000
20
5.266000
41
0.177800
42
0.177800
0
CIRCLE
8
0
10
3.750000
20
5.266000
40
0.063500
0
INSERT
8
0
2
EPAD
10
3.750000
20
4.250000
41
0.177800
42
0.177800
0
CIRCLE
8
0
10
3.750000
20
4.250000
40
0.063500
0
INSERT
8
0
2
EPAD
10
1.500000
20
0.500000
41
0.177800
42
0.177800
0
CIRCLE
8
0
10
1.500000
20
0.500000
40
0.063500
0
INSERT
8
0
2
EPAD
10
1.500000
20
1.516000
41
0.177800
42
0.177800
0
CIRCLE
8
0
10
1.500000
20
1.516000
40
0.063500
0
INSERT
8
0
2
EPAD
10
2.250000
20
0.266000
41
0.177800
42
0.177800
0
CIRCLE
8
0
10
2.250000
20
0.266000
40
0.063500
0
INSERT
8
0
2
EPAD
10
2.250000
20
-0.750000
41
0.177800
42
0.177800
0
CIRCLE
8
0
10
2.250000
20
-0.750000
40
0.063500
0
INSERT
8
0
2
EPAD
10
2.734000
20
-3.500000
41
0.177800
42
0.177800
0
CIRCLE
8
0
10
2.734000
20
-3.500000
40
0.063500
0
INSERT
8
0
2
EPAD
10
3.750000
20
-3.500000
41
0.177800
42
0.177800
0
CIRCLE
8
0
10
3.750000
20
-3.500000
40
0.063500
0
INSERT
8
0
2
EPAD
10
3.500000
20
9.000000
41
0.177800
42
0.177800
0
CIRCLE
8
0
10
3.500000
20
9.000000
40
0.063500
0
INSERT
8
0
2
EPAD
10
3.500000
20
8.492000
41
0.177800
42
0.177800
0
CIRCLE
8
0
10
3.500000
20
8.492000
40
0.063500
0
INSERT
8
0
2
EPAD
10
6.250000
20
9.250000
41
0.177800
42
0.177800
0
CIRCLE
8
0
10
6.250000
20
9.250000
40
0.063500
0
INSERT
8
0
2
EPAD
10
5.234000
20
9.250000
41
0.177800
42
0.177800
0
CIRCLE
8
0
10
5.234000
20
9.250000
40
0.063500
0
INSERT
8
0
2
EPAD
10
0.750000
20
2.996000
41
0.203200
42
0.203200
0
CIRCLE
8
0
10
0.750000
20
2.996000
40
0.063500
0
INSERT
8
0
2
EPAD
10
0.750000
20
3.250000
41
0.203200
42
0.203200
0
CIRCLE
8
0
10
0.750000
20
3.250000
40
0.063500
0
INSERT
8
0
2
EPAD
10
0.750000
20
3.504000
41
0.203200
42
0.203200
0
CIRCLE
8
0
10
0.750000
20
3.504000
40
0.063500
0
INSERT
8
0
2
EPAD
10
0.750000
20
1.750000
41
0.177800
42
0.177800
0
CIRCLE
8
0
10
0.750000
20
1.750000
40
0.063500
0
INSERT
8
0
2
EPAD
10
0.750000
20
0.734000
41
0.177800
42
0.177800
0
CIRCLE
8
0
10
0.750000
20
0.734000
40
0.063500
0
INSERT
8
0
2
EPAD
10
-1.500000
20
4.750000
41
0.203200
42
0.203200
0
CIRCLE
8
0
10
-1.500000
20
4.750000
40
0.063500
0
INSERT
8
0
2
EPAD
10
-1.500000
20
5.004000
41
0.203200
42
0.203200
0
CIRCLE
8
0
10
-1.500000
20
5.004000
40
0.063500
0
INSERT
8
0
2
EPAD
10
-1.500000
20
5.258000
41
0.203200
42
0.203200
0
CIRCLE
8
0
10
-1.500000
20
5.258000
40
0.063500
0
INSERT
8
0
2
EPAD
10
0.500000
20
4.746000
41
0.203200
42
0.203200
0
CIRCLE
8
0
10
0.500000
20
4.746000
40
0.063500
0
INSERT
8
0
2
EPAD
10
0.500000
20
5.000000
41
0.203200
42
0.203200
0
CIRCLE
8
0
10
0.500000
20
5.000000
40
0.063500
0
INSERT
8
0
2
EPAD
10
0.500000
20
5.254000
41
0.203200
42
0.203200
0
CIRCLE
8
0
10
0.500000
20
5.254000
40
0.063500
0
INSERT
8
0
2
EPAD
10
6.250000
20
10.000000
41
0.177800
42
0.177800
0
CIRCLE
8
0
10
6.250000
20
10.000000
40
0.063500
0
INSERT
8
0
2
EPAD
10
5.234000
20
10.000000
41
0.177800
42
0.177800
0
CIRCLE
8
0
10
5.234000
20
10.000000
40
0.063500
0
INSERT
8
0
2
EPAD
10
3.000000
20
1.714295
41
0.177800
42
0.177800
0
CIRCLE
8
0
10
3.000000
20
1.714295
40
0.063500
0
INSERT
8
0
2
EPAD
10
3.000000
20
2.730295
41
0.177800
42
0.177800
0
CIRCLE
8
0
10
3.000000
20
2.730295
40
0.063500
0
INSERT
8
0
2
EPAD
10
0.000000
20
3.750000
41
0.177800
42
0.177800
0
CIRCLE
8
0
10
0.000000
20
3.750000
40
0.063500
0
INSERT
8
0
2
EPAD
10
-1.016000
20
3.750000
41
0.177800
42
0.177800
0
CIRCLE
8
0
10
-1.016000
20
3.750000
40
0.063500
0
INSERT
8
0
2
EPAD
10
-1.250000
20
1.250000
41
0.203200
42
0.203200
0
CIRCLE
8
0
10
-1.250000
20
1.250000
40
0.063500
0
INSERT
8
0
2
EPAD
10
-0.932500
20
1.250000
41
0.203200
42
0.203200
0
CIRCLE
8
0
10
-0.932500
20
1.250000
40
0.063500
0
INSERT
8
0
2
EPAD
10
-3.000000
20
4.000000
41
0.177800
42
0.177800
0
CIRCLE
8
0
10
-3.000000
20
4.000000
40
0.063500
0
INSERT
8
0
2
EPAD
10
-1.984000
20
4.000000
41
0.177800
42
0.177800
0
CIRCLE
8
0
10
-1.984000
20
4.000000
40
0.063500
0
INSERT
8
0
2
EPAD
10
-2.750000
20
2.500000
41
0.203200
42
0.203200
0
CIRCLE
8
0
10
-2.750000
20
2.500000
40
0.063500
0
INSERT
8
0
2
EPAD
10
-3.004000
20
2.500000
41
0.203200
42
0.203200
0
CIRCLE
8
0
10
-3.004000
20
2.500000
40
0.063500
0
INSERT
8
0
2
EPAD
10
11.250000
20
4.792480
41
0.304800
42
0.304800
0
CIRCLE
8
0
10
11.250000
20
4.792480
40
0.025400
0
INSERT
8
0
2
EPAD
10
11.250000
20
4.396240
41
0.304800
42
0.304800
0
CIRCLE
8
0
10
11.250000
20
4.396240
40
0.025400
0
INSERT
8
0
2
EPAD
10
11.250000
20
4.000000
41
0.304800
42
0.304800
0
CIRCLE
8
0
10
11.250000
20
4.000000
40
0.025400
0
POLYLINE
8
0
66
1
40
0.020320
41
0.020320
0
VERTEX
8
0
10
-5.250000
20
-7.500000
0
VERTEX
8
0
10
13.750000
20
-7.500000
0
VERTEX
8
0
10
13.750000
20
12.250000
0
VERTEX
8
0
10
-5.250000
20
12.250000
0
VERTEX
8
0
10
-5.250000
20
-7.500000
0
SEQEND
8
0
0
ENDSEC
0
EOF

